HIERARCHY
ROOT hip
{
	OFFSET 0.000000 0.000000 0.000000 
	CHANNELS 6 Xposition Yposition Zposition Xrotation Zrotation Yrotation
	JOINT abdomen
	{
		OFFSET 0.000000 3.402643 0.000000 
		CHANNELS 3 Xrotation Zrotation Yrotation
		JOINT chest
		{
			OFFSET 0.000000 8.438565 -0.680529 
			CHANNELS 3 Xrotation Zrotation Yrotation
			JOINT neck
			{
				OFFSET 0.000000 10.207942 -0.272212 
				CHANNELS 3 Xrotation Zrotation Yrotation
				JOINT head
				{
					OFFSET 0.000000 3.130431 0.000000 
					CHANNELS 3 Xrotation Zrotation Yrotation
					End Site
					{
						OFFSET 0.000000 3.130435 0.000000 
					}
				}
			}
			JOINT lCollar
			{
				OFFSET 3.470700 6.669187 -0.816635 
				CHANNELS 3 Yrotation Zrotation Xrotation
				JOINT lShldr
				{
					OFFSET 3.198488 0.000000 0.000000 
					CHANNELS 3 Zrotation Yrotation Xrotation
					JOINT lForeArm
					{
						OFFSET 10.139888 0.000000 0.000000 
						CHANNELS 3 Yrotation Zrotation Xrotation
						JOINT lHand
						{
							OFFSET 8.370511 0.000000 0.000000 
							CHANNELS 3 Zrotation Yrotation Xrotation
							End Site
							{
								OFFSET 4.083176 0.000000 0.000000 
							}
						}
					}
				}
			}
			JOINT rCollar
			{
				OFFSET -3.470700 6.669187 -0.816635 
				CHANNELS 3 Yrotation Zrotation Xrotation
				JOINT rShldr
				{
					OFFSET -3.198488 0.000000 0.000000 
					CHANNELS 3 Zrotation Yrotation Xrotation
					JOINT rForeArm
					{
						OFFSET -10.139888 0.000000 0.000000 
						CHANNELS 3 Yrotation Zrotation Xrotation
						JOINT rHand
						{
							OFFSET -8.370511 0.000000 0.000000 
							CHANNELS 3 Zrotation Yrotation Xrotation
							End Site
							{
								OFFSET -4.083176 0.000000 0.000000 
							}
						}
					}
				}
			}
		}
	}
	JOINT lThigh
	{
		OFFSET 5.308129 -1.633274 1.361059 
		CHANNELS 3 Xrotation Zrotation Yrotation
		JOINT lShin
		{
			OFFSET -2.041588 -20.007561 0.000000 
			CHANNELS 3 Xrotation Zrotation Yrotation
			JOINT lFoot
			{
				OFFSET 0.000000 -19.190928 -1.224953 
				CHANNELS 3 Xrotation Yrotation Zrotation
				End Site
				{
					OFFSET 0.000000 -2.449906 4.627600 
				}
			}
		}
	}
	JOINT rThigh
	{
		OFFSET -5.308129 -1.633274 1.361059 
		CHANNELS 3 Xrotation Zrotation Yrotation
		JOINT rShin
		{
			OFFSET 2.041588 -20.007561 0.000000 
			CHANNELS 3 Xrotation Zrotation Yrotation
			JOINT rFoot
			{
				OFFSET 0.000000 -19.190928 -1.224953 
				CHANNELS 3 Xrotation Yrotation Zrotation
				End Site
				{
					OFFSET 0.000000 -2.449906 4.627600 
				}
			}
		}
	}
}
MOTION
Frames: 16
Frame Time: 0.033333
1.605983 33.426041 1.605985 0.000000 0.000000 0.000000 25.102688 6.394765 -16.323036 -5.058582 0.065922 7.508560 17.814896 -1.117623 -2.240069 10.524219 0.508720 -0.030344 -4.666922 -5.238740 -3.710824 -81.899323 -100.895447 30.980984 -33.780937 -2.348939 2.227460 57.896179 -14.909410 -104.422455 1.647578 4.474117 -3.674787 109.265770 34.187519 35.217922 125.573135 2.994643 0.004299 21.186436 -5.365073 55.824986 -56.198704 8.066111 6.167339 57.586170 0.690256 -4.420260 -1.178822 6.195908 0.054986 -25.866570 -19.848688 -24.456102 95.962044 -3.427487 4.431198 -52.864956 3.255730 4.853685 
1.572668 34.480980 1.572668 0.000000 0.000000 0.000000 25.102688 6.394765 -16.323036 -5.058582 0.065922 7.508560 17.814896 -1.117623 -2.240069 10.524219 0.508720 -0.030344 -4.666922 -5.238740 -3.710824 -81.899323 -100.895447 30.980984 -33.780937 -2.348939 2.227460 57.896179 -14.909410 -104.422455 1.647578 4.474117 -3.674787 109.265770 34.187519 35.217922 125.573135 2.994643 0.004299 21.186436 -5.365073 55.824986 -51.816528 7.087928 4.015134 60.734173 0.902731 -4.478258 -9.132663 6.287195 -1.362104 -30.992809 -19.907154 -24.550926 96.449173 -3.456582 4.445863 -47.964722 0.535330 2.678998 
1.617085 35.369339 1.617085 0.000000 0.000000 0.000000 25.102688 6.394765 -16.323036 -5.058582 0.065922 7.508560 17.814896 -1.117623 -2.240069 10.524219 0.508720 -0.030344 -4.666922 -5.238740 -3.710824 -81.899323 -100.895447 30.980984 -33.780937 -2.348939 2.227460 57.896179 -14.909410 -104.422455 1.647578 4.474117 -3.674787 109.265770 34.187519 35.217922 125.573135 2.994643 0.004299 21.186436 -5.365073 55.824986 -47.327518 6.229830 1.723667 63.910141 1.127872 -4.547413 -17.350178 6.510397 -2.587939 -36.177959 -19.995047 -24.664864 97.074600 -3.505527 4.402465 -43.263397 -2.475420 0.579066 
1.900244 36.085575 1.900244 0.000000 0.000000 0.000000 25.102688 6.394765 -16.323036 -5.058582 0.065922 7.508560 17.814896 -1.117623 -2.240069 10.524219 0.508720 -0.030344 -4.666922 -5.238740 -3.710824 -81.899323 -100.895447 30.980984 -33.780937 -2.348939 2.227460 57.896179 -14.909410 -104.422455 1.647578 4.474117 -3.674787 109.265770 34.187519 35.217922 125.573135 2.994643 0.004299 21.186436 -5.365073 55.824986 -42.924847 5.604682 -0.482197 67.066521 1.360935 -4.597747 -25.400887 6.798111 -3.567985 -41.245556 -20.043625 -24.727951 97.425331 -3.524927 4.415050 -38.749001 -5.586163 -1.447344 
2.277808 36.640797 2.277808 0.000000 0.000000 0.000000 25.102688 6.394765 -16.323036 -5.058582 0.065922 7.508560 17.814896 -1.117623 -2.240069 10.524219 0.508720 -0.030344 -4.666922 -5.238740 -3.710824 -81.899323 -100.895447 30.980984 -33.780937 -2.348939 2.227460 57.896179 -14.909410 -104.422455 1.647578 4.474117 -3.674787 109.265770 34.187519 35.217922 125.573135 2.994643 0.004299 21.186436 -5.365073 55.824986 -38.786148 5.302013 -2.411636 70.164955 1.584697 -4.628611 -32.857002 7.100652 -4.300811 -46.023643 -19.988289 -24.746962 97.122482 -3.524892 4.410597 -34.396587 -8.463527 -3.347274 
2.594284 36.946171 2.594284 0.000000 0.000000 0.000000 25.102688 6.394765 -16.323036 -5.058582 0.065922 7.508560 17.814896 -1.117623 -2.240069 10.524219 0.508720 -0.030344 -4.666922 -5.238740 -3.710824 -81.899323 -100.895447 30.980984 -33.780937 -2.348939 2.227460 57.896179 -14.909410 -104.422455 1.647578 4.474117 -3.674787 109.265770 34.187519 35.217922 125.573135 2.994643 0.004299 21.186436 -5.365073 55.824986 -35.087742 5.321310 -3.771703 73.184998 1.798158 -4.669041 -39.288338 7.347295 -4.833533 -50.337540 -19.732018 -24.605865 95.756516 -3.417557 4.447978 -30.056887 -10.839824 -5.146961 
2.777508 36.946171 2.777508 0.000000 0.000000 0.000000 25.102688 6.394765 -16.323036 -5.058582 0.065922 7.508560 17.814896 -1.117623 -2.240069 10.524219 0.508720 -0.030344 -4.666922 -5.238740 -3.710824 -81.899323 -100.895447 30.980984 -33.780937 -2.348939 2.227460 57.896179 -14.909410 -104.422455 1.647578 4.474117 -3.674787 109.265770 34.187519 35.217922 125.573135 2.994643 0.004299 21.186436 -5.365073 55.824986 -32.067043 5.692949 -4.332178 76.118202 2.013611 -4.673307 -44.237000 7.383442 -5.329933 -54.003227 -19.237688 -24.356430 92.945839 -3.241953 4.504987 -25.630514 -12.316789 -6.862221 
2.899658 36.701870 2.899658 0.000000 0.000000 0.000000 25.102688 6.394765 -16.323036 -5.058582 0.065922 7.508560 17.814896 -1.117623 -2.240069 10.524219 0.508720 -0.030344 -4.666922 -5.238740 -3.710824 -81.899323 -100.895447 30.980984 -33.780937 -2.348939 2.227460 57.896179 -14.909410 -104.422455 1.647578 4.474117 -3.674787 109.265770 34.187519 35.217922 125.573135 2.994643 0.004299 21.186436 -5.365073 55.824986 -29.579046 6.347146 -4.043633 79.012886 2.218609 -4.670945 -47.703506 7.282268 -5.839306 -56.653282 -18.206900 -23.900043 87.182526 -2.812107 4.595108 -20.681744 -11.968482 -8.636615 
3.038466 36.296566 3.038466 0.000000 0.000000 0.000000 25.102688 6.394765 -16.323036 -5.058582 0.065922 7.508560 17.814896 -1.117623 -2.240069 10.524219 0.508720 -0.030344 -4.666922 -5.238740 -3.710824 -81.899323 -100.895447 30.980984 -33.780937 -2.348939 2.227460 57.896179 -14.909410 -104.422455 1.647578 4.474117 -3.674787 109.265770 34.187519 35.217922 125.573135 2.994643 0.004299 21.186436 -5.365073 55.824986 -27.243778 7.206310 -3.068744 82.004585 2.432231 -4.678483 -50.228817 7.083530 -6.413520 -58.267796 -16.676971 -23.275133 78.438316 -2.186845 4.649427 -15.074168 -9.604222 -10.463958 
2.866341 35.719131 2.866341 0.000000 0.000000 0.000000 25.102688 6.394765 -16.323036 -5.058582 0.065922 7.508560 17.814896 -1.117623 -2.240069 10.524219 0.508720 -0.030344 -4.666922 -5.238740 -3.710824 -81.899323 -100.895447 30.980984 -33.780937 -2.348939 2.227460 57.896179 -14.909410 -104.422455 1.647578 4.474117 -3.674787 109.265770 34.187519 35.217922 125.573135 2.994643 0.004299 21.186436 -5.365073 55.824986 -25.128071 8.171145 -1.574655 85.017838 2.647214 -4.632432 -51.955280 6.730543 -6.990288 -59.154034 -14.888395 -22.501106 68.480438 -1.464504 4.581563 -9.144709 -6.204618 -11.986477 
2.672016 34.975121 2.672016 0.000000 0.000000 0.000000 25.102688 6.394765 -16.323036 -5.058582 0.065922 7.508560 17.814896 -1.117623 -2.240069 10.524219 0.508720 -0.030344 -4.666922 -5.238740 -3.710824 -81.899323 -100.895447 30.980984 -33.780937 -2.348939 2.227460 57.896179 -14.909410 -104.422455 1.647578 4.474117 -3.674787 109.265770 34.187519 35.217922 125.573135 2.994643 0.004299 21.186436 -5.365073 55.824986 -23.300714 9.165716 0.297315 87.932442 2.859439 -4.616899 -53.006485 6.258266 -7.431114 -59.621712 -13.130054 -21.646044 59.087761 -0.810385 4.416146 -3.421093 -2.873381 -13.033669 
2.416616 34.281090 2.416616 0.000000 0.000000 0.000000 25.102688 6.394765 -16.323036 -5.058582 0.065922 7.508560 17.814896 -1.117623 -2.240069 10.524219 0.508720 -0.030344 -4.666922 -5.238740 -3.710824 -81.899323 -100.895447 30.980984 -33.780937 -2.348939 2.227460 57.896179 -14.909410 -104.422455 1.647578 4.474117 -3.674787 109.265770 34.187519 35.217922 125.573135 2.994643 0.004299 21.186436 -5.365073 55.824986 -21.857433 10.142542 2.306668 90.712242 3.036949 -4.587736 -53.531963 5.711232 -7.719204 -60.016960 -11.668854 -20.733465 52.051876 -0.341417 4.218828 1.502579 -0.787298 -13.495609 
2.039052 33.514874 2.039052 0.000000 0.000000 0.000000 25.102688 6.394765 -16.323036 -5.058582 0.065922 7.508560 17.814896 -1.117623 -2.240069 10.524219 0.508720 -0.030344 -4.666922 -5.238740 -3.710824 -81.899323 -100.895447 30.980984 -33.780937 -2.348939 2.227460 57.896179 -14.909410 -104.422455 1.647578 4.474117 -3.674787 109.265770 34.187519 35.217922 125.573135 2.994643 0.004299 21.186436 -5.365073 55.824986 -20.814999 11.031884 4.346286 93.170830 3.202332 -4.540046 -53.683506 5.113213 -7.786821 -60.151394 -10.642276 -19.512962 48.815510 -0.136678 4.114130 5.658395 -1.475887 -12.657124 
1.605983 32.793079 1.605985 0.000000 0.000000 0.000000 25.102688 6.394765 -16.323036 -5.058582 0.065922 7.508560 17.814896 -1.117623 -2.240069 10.524219 0.508720 -0.030344 -4.666922 -5.238740 -3.710824 -81.899323 -100.895447 30.980984 -33.780937 -2.348939 2.227460 57.896179 -14.909410 -104.422455 1.647578 4.474117 -3.674787 109.265770 34.187519 35.217922 125.573135 2.994643 0.004299 21.186436 -5.365073 55.824986 -20.295353 11.811039 6.232016 95.287453 3.357968 -4.503344 -53.608185 4.478053 -7.656855 -59.547577 -9.998628 -17.944899 48.815510 -0.136677 4.114130 8.340176 -3.685228 -10.416831 
1.272842 32.615395 1.272843 0.000000 0.000000 0.000000 25.102688 6.394765 -16.323036 -5.058582 0.065922 7.508560 17.814896 -1.117623 -2.240069 10.524219 0.508720 -0.030344 -4.666922 -5.238740 -3.710824 -81.899323 -100.895447 30.980984 -33.780937 -2.348939 2.227460 57.896179 -14.909410 -104.422455 1.647578 4.474117 -3.674787 109.265770 34.187519 35.217922 125.573135 2.994643 0.004299 21.186436 -5.365073 55.824986 -20.387587 12.497654 7.721432 96.917389 3.465173 -4.463077 -53.449020 3.816787 -7.400759 -57.944218 -9.685588 -16.573109 50.774841 -0.253576 4.185514 7.615388 -4.735396 -8.038776 
1.261737 33.437141 1.261737 0.000000 0.000000 0.000000 25.102688 6.394765 -16.323036 -5.058582 0.065922 7.508560 17.814896 -1.117623 -2.240069 10.524219 0.508720 -0.030344 -4.666922 -5.238740 -3.710824 -81.899323 -100.895447 30.980984 -33.780937 -2.348939 2.227460 57.896179 -14.909410 -104.422455 1.647578 4.474117 -3.674787 109.265770 34.187519 35.217922 125.573135 2.994643 0.004299 21.186436 -5.365073 55.824986 -21.294714 13.170382 8.944780 98.235573 3.543081 -4.426069 -53.149368 2.961220 -6.979549 -55.571999 -9.539317 -15.328382 53.708431 -0.458925 4.271444 3.713342 -4.217759 -6.053733 
